{"title":"Deux Jours, Une Nuit (2014) - 1080p x265 HEVC + 1080p x264 - FRE","uid":14754150,"size":2527130113,"categoryP":"video","categoryS":"hd___movies","magnet":"?xt=urn:btih:d440dd97775d314a2084185bf10ab331f9669228&amp;dn=Deux+Jours%2C+Une+Nuit+%282014%29+-+1080p+x265+HEVC+%2B+1080p+x264+-+FRE&amp;tr=udp%3A%2F%2Ftracker.leechers-paradise.org%3A6969&amp;tr=udp%3A%2F%2Fzer0day.ch%3A1337&amp;tr=udp%3A%2F%2Fopen.demonii.com%3A1337&amp;tr=udp%3A%2F%2Ftracker.coppersurfer.tk%3A6969&amp;tr=udp%3A%2F%2Fexodus.desync.com%3A6969","seeders":1,"leechers":0,"uploader":"BRSHNKV","files":3,"time":1464784465,"description":"Sandra, a young Belgian mother, discovers that her workmates have opted for a significant pay bonus, in exchange for her dismissal. She has only one weekend to convince her colleagues to give up their bonuses so that she can keep her job.\r\n\r\n\r\n\r\nTechnical x264:\r\n\r\n\r\nFormat : MPEG-4\r\nFormat profile : Base Media / Version 2\r\nCodec ID : mp42\r\nFile size : 1.24 GiB\r\nDuration : 1h 35mn\r\nOverall bit rate mode : Variable\r\nOverall bit rate : 1 870 Kbps\r\nEncoded date : UTC 2016-05-30 11:58:38\r\nTagged date : UTC 2016-05-30 11:58:38\r\nWriting application : HandBrake 0.10.2 2015061100\r\n\r\nVideo\r\nID : 1\r\nFormat : AVC\r\nFormat/Info : Advanced Video Codec\r\nFormat profile :   \r\nFormat settings, CABAC : Yes\r\nFormat settings, ReFrames : 4 frames\r\nCodec ID : avc1\r\nCodec ID/Info : Advanced Video Coding\r\nDuration : 1h 35mn\r\nBit rate : 1 700 Kbps\r\nWidth : 1 920 pixels\r\nHeight : 1 036 pixels\r\nDisplay aspect ratio : 1.85:1\r\nFrame rate mode : Variable\r\nFrame rate : 23.976 fps\r\nMinimum frame rate : 23.974 fps\r\nMaximum frame rate : 23.981 fps\r\nColor space : YUV\r\nChroma subsampling : 4:2:0\r\nBit depth : 8 bits\r\nScan type : Progressive\r\nBits/(Pixel*Frame) : 0.036\r\nStream size : 1.13 GiB (91%)\r\nWriting library : x264 core 142 r2479 dd79a61\r\nEncoded date : UTC 2016-05-30 11:58:38\r\nTagged date : UTC 2016-05-30 11:58:38\r\nColor range : Limited\r\nColor primaries : BT.709\r\nTransfer characteristics : BT.709\r\nMatrix coefficients : BT.709\r\n\r\nAudio\r\nID : 2\r\nFormat : AAC\r\nFormat/Info : Advanced Audio Codec\r\nFormat profile : LC\r\nCodec ID : 40\r\nDuration : 1h 35mn\r\nBit rate mode : Variable\r\nBit rate : 164 Kbps\r\nChannel(s) : 2 channels\r\nChannel positions : Front: L R\r\nSampling rate : 48.0 KHz\r\nCompression mode : Lossy\r\nStream size : 112 MiB (9%)\r\nTitle : Stereo / Stereo\r\nLanguage : French\r\nEncoded date : UTC 2016-05-30 11:58:38\r\nTagged date : UTC 2016-05-30 11:58:38\r\n\r\nMenu\r\nID : 3\r\nCodec ID : text\r\nDuration : 1h 35mn\r\nLanguage : English\r\nEncoded date : UTC 2016-05-30 11:58:38\r\nTagged date : UTC 2016-05-30 11:58:38\r\nBit rate mode : CBR\r\n00:00:00.000 : 00:00:00.000\r\n00:09:15.013 : 00:09:14.929\r\n00:17:49.527 : 00:17:49.402\r\n00:28:07.019 : 00:28:06.935\r\n00:35:57.906 : 00:35:57.822\r\n00:42:43.644 : 00:42:43.561\r\n00:51:24.164 : 00:51:24.081\r\n01:01:19.718 : 01:01:19.634\r\n01:11:19.150 : 01:11:19.066\r\n01:22:12.970 : 01:22:12.886\r\n01:28:55.121 : 01:28:55.038\r\n01:31:56.928 : 01:31:56.803\r\n\r\n__________________________________________\r\n\r\n\r\nTechnical x265:\r\n\r\n\r\nFormat : MPEG-4\r\nFormat profile : Base Media / Version 2\r\nCodec ID : mp42\r\nFile size : 1.11 GiB\r\nDuration : 1h 35mn\r\nOverall bit rate mode : Variable\r\nOverall bit rate : 1 671 Kbps\r\nEncoded date : UTC 2016-05-29 22:17:34\r\nTagged date : UTC 2016-05-29 22:17:34\r\nWriting application : HandBrake 20160211184813-ffd8cb1-master 2016021301\r\n\r\nVideo\r\nID : 1\r\nFormat : HEVC\r\nFormat/Info : High Efficiency Video Coding\r\nFormat profile : Main   @Main\r\nCodec ID : hev1\r\nCodec ID/Info : High Efficiency Video Coding\r\nDuration : 1h 35mn\r\nBit rate : 1 500 Kbps\r\nWidth : 1 920 pixels\r\nHeight : 1 036 pixels\r\nDisplay aspect ratio : 1.85:1\r\nFrame rate mode : Variable\r\nFrame rate : 23.976 fps\r\nMinimum frame rate : 23.974 fps\r\nMaximum frame rate : 23.981 fps\r\nColor space : YUV\r\nChroma subsampling : 4:2:0\r\nBit depth : 10 bits\r\nBits/(Pixel*Frame) : 0.031\r\nStream size : 1 021 MiB (90%)\r\nWriting library : x265 1.9:[Mac OS X][clang 7.0.2][64 bit] 10bit\r\nEncoded date : UTC 2016-05-29 22:17:34\r\nTagged date : UTC 2016-05-29 22:17:34\r\nColor range : Limited\r\nColor primaries : BT.709\r\nTransfer characteristics : BT.709\r\nMatrix coefficients : BT.709\r\n\r\nAudio\r\nID : 2\r\nFormat : AAC\r\nFormat/Info : Advanced Audio Codec\r\nFormat profile : LC\r\nCodec ID : 40\r\nDuration : 1h 35mn\r\nBit rate mode : Variable\r\nBit rate : 164 Kbps\r\nChannel(s) : 2 channels\r\nChannel positions : Front: L R\r\nSampling rate : 48.0 KHz\r\nCompression mode : Lossy\r\nStream size : 112 MiB (10%)\r\nTitle : Stereo / Stereo\r\nLanguage : French\r\nEncoded date : UTC 2016-05-29 22:17:34\r\nTagged date : UTC 2016-05-29 22:17:34\r\n\r\nMenu\r\nID : 3\r\nCodec ID : text\r\nDuration : 1h 35mn\r\nLanguage : English\r\nEncoded date : UTC 2016-05-29 22:17:34\r\nTagged date : UTC 2016-05-29 22:17:34\r\nBit rate mode : CBR\r\n00:00:00.000 : 00:00:00.000\r\n00:09:24.272 : 00:09:14.929\r\n00:17:59.495 : 00:17:49.402\r\n00:28:16.737 : 00:28:06.935\r\n00:35:57.906 : 00:35:57.822\r\n00:42:43.644 : 00:42:43.561\r\n00:51:24.164 : 00:51:24.081\r\n01:01:19.718 : 01:01:19.634\r\n01:11:19.150 : 01:11:19.066\r\n01:22:12.970 : 01:22:12.886\r\n01:28:55.121 : 01:28:55.038\r\n01:32:06.896 : 01:31:56.803","torrent":{"xt":"urn:btih:d440dd97775d314a2084185bf10ab331f9669228","amp;dn":"Deux+Jours%2C+Une+Nuit+%282014%29+-+1080p+x265+HEVC+%2B+1080p+x264+-+FRE","amp;tr":["udp%3A%2F%2Ftracker.leechers-paradise.org%3A6969","udp%3A%2F%2Fzer0day.ch%3A1337","udp%3A%2F%2Fopen.demonii.com%3A1337","udp%3A%2F%2Ftracker.coppersurfer.tk%3A6969","udp%3A%2F%2Fexodus.desync.com%3A6969"],"infoHash":"d440dd97775d314a2084185bf10ab331f9669228","infoHashBuffer":{"type":"Buffer","data":[212,64,221,151,119,93,49,74,32,132,24,91,241,10,179,49,249,102,146,40]},"announce":[],"urlList":[]}}